<svg width="64" height="224" viewBox="0 0 64 224" fill="none" xmlns="http://www.w3.org/2000/svg">
<path d="M32 64C49.6731 64 64 49.6731 64 32C64 14.3269 49.6731 0 32 0C14.3269 0 0 14.3269 0 32C0 49.6731 14.3269 64 32 64Z" fill="#434343"/>
<path d="M32 224C49.6731 224 64 209.673 64 192C64 174.327 49.6731 160 32 160C14.3269 160 0 174.327 0 192C0 209.673 14.3269 224 32 224Z" fill="#434343"/>
<path d="M32 144C49.6731 144 64 129.673 64 112C64 94.3269 49.6731 80 32 80C14.3269 80 0 94.3269 0 112C0 129.673 14.3269 144 32 144Z" fill="#434343"/>
</svg>
