<svg width="106" height="106" viewBox="0 0 106 106" fill="none" xmlns="http://www.w3.org/2000/svg">
<path d="M99.8167 106C87.1556 106 74.8144 103.177 62.7932 97.5318C50.7681 91.8902 40.119 84.431 30.846 75.154C21.569 65.881 14.1098 55.2319 8.46822 43.2068C2.82274 31.1856 0 18.8444 0 6.18333C0 4.41667 0.588889 2.94444 1.76667 1.76667C2.94444 0.588889 4.41667 0 6.18333 0H30.0333C31.4074 0 32.6343 0.441666 33.7139 1.325C34.7935 2.20833 35.4315 3.33704 35.6278 4.71111L39.4556 25.3222C39.6519 26.6963 39.6283 27.9467 39.3849 29.0734C39.1376 30.2041 38.5722 31.2111 37.6889 32.0944L23.5556 46.5222C27.6778 53.5889 32.8306 60.2139 39.0139 66.3972C45.1972 72.5806 52.0185 77.9296 59.4778 82.4444L73.3167 68.6056C74.2 67.7222 75.3542 67.0587 76.7793 66.6151C78.2005 66.1754 79.5981 66.0537 80.9722 66.25L101.289 70.3722C102.663 70.6667 103.792 71.3282 104.675 72.3568C105.558 73.3893 106 74.5926 106 75.9667V99.8167C106 101.583 105.411 103.056 104.233 104.233C103.056 105.411 101.583 106 99.8167 106Z" fill="#434343"/>
</svg>
