<svg width="107" height="83" viewBox="0 0 107 83" fill="none" xmlns="http://www.w3.org/2000/svg">
<path d="M46.545 47.4656L34.775 36.3125H37.45C38.9658 36.3125 40.2374 35.8145 41.2646 34.8185C42.2882 33.826 42.8 32.5948 42.8 31.125C42.8 29.6552 42.2882 28.4223 41.2646 27.4263C40.2374 26.4338 38.9658 25.9375 37.45 25.9375H21.4C19.8842 25.9375 18.6127 26.4338 17.5855 27.4263C16.5618 28.4223 16.05 29.6552 16.05 31.125V46.6875C16.05 48.1573 16.5618 49.3885 17.5855 50.381C18.6127 51.377 19.8842 51.875 21.4 51.875C22.9158 51.875 24.1873 51.377 25.2145 50.381C26.2382 49.3885 26.75 48.1573 26.75 46.6875V43.0563L42.8 58.6188C43.2458 59.051 43.8022 59.3969 44.4692 59.6562C45.1397 59.9156 45.8317 60.0453 46.545 60.0453C47.2583 60.0453 47.9503 59.9156 48.6208 59.6562C49.2878 59.3969 49.8442 59.0078 50.29 58.4891L67.0087 42.1484C67.9896 41.1974 68.48 40.0302 68.48 38.6469C68.48 37.2635 67.945 36.0531 66.875 35.0156C65.8942 34.0646 64.6458 33.5891 63.13 33.5891C61.6142 33.5891 60.3658 34.0646 59.385 35.0156L46.545 47.4656ZM10.7 83C7.7575 83 5.23943 81.985 3.1458 79.9549C1.0486 77.9214 0 75.4781 0 72.625V10.375C0 7.52187 1.0486 5.08029 3.1458 3.05025C5.23943 1.01675 7.7575 0 10.7 0H74.9C77.8425 0 80.3623 1.01675 82.4595 3.05025C84.5532 5.08029 85.6 7.52187 85.6 10.375V33.7188L102.452 17.3781C103.255 16.6 104.214 16.4046 105.331 16.7919C106.444 17.1827 107 17.9833 107 19.1937V63.8062C107 65.0167 106.444 65.8155 105.331 66.2029C104.214 66.5937 103.255 66.4 102.452 65.6219L85.6 49.2812V72.625C85.6 75.4781 84.5532 77.9214 82.4595 79.9549C80.3623 81.985 77.8425 83 74.9 83H10.7Z" fill="#434343"/>
</svg>
