<svg width="20" height="20" viewBox="0 0 20 20" fill="none" xmlns="http://www.w3.org/2000/svg">
<path d="M1.60689 19.8908C1.22429 20.0684 0.860832 20.0293 0.516499 19.7736C0.172166 19.5187 0 19.1471 0 18.6586V13.6966C0 13.3858 0.0765185 13.1083 0.229555 12.8641C0.382592 12.6199 0.593018 12.4645 0.860832 12.3979L9.18221 10.0001L0.860832 7.60237C0.593018 7.53576 0.382592 7.38035 0.229555 7.13614C0.0765185 6.89192 0 6.61441 0 6.30359V1.34159C0 0.853157 0.172166 0.481062 0.516499 0.225303C0.860832 -0.029569 1.22429 -0.0681998 1.60689 0.109411L19.2826 8.76794C19.7609 9.01215 20 9.42288 20 10.0001C20 10.5773 19.7609 10.9881 19.2826 11.2323L1.60689 19.8908Z" fill="black"/>
</svg>
