<svg width="80" height="80" viewBox="0 0 80 80" fill="none" xmlns="http://www.w3.org/2000/svg">
<path d="M29.6 34L48.68 0.96C45.88 0.36 43 0 40 0C30.4 0 21.6 3.4 14.72 9L29.36 34.4L29.6 34ZM78.16 28C74.48 16.32 65.56 6.96 54.16 2.64L39.52 28H78.16ZM79.2 32H49.24L50.4 34L69.44 67C76 59.88 80 50.44 80 40C80 37.24 79.72 34.6 79.2 32ZM26.16 40L10.56 13C4.04 20.12 0 29.56 0 40C0 42.76 0.28 45.4 0.8 48H30.76L26.16 40ZM1.84 52C5.52 63.68 14.44 73.04 25.84 77.36L40.48 52H1.84ZM46.92 52L31.32 79.04C34.12 79.64 37 80 40 80C49.6 80 58.4 76.6 65.28 71L50.64 45.6L46.92 52Z" fill="#434343"/>
</svg>
