<svg width="52" height="52" viewBox="0 0 52 52" fill="none" xmlns="http://www.w3.org/2000/svg">
<path d="M45.8801 28.5458C45.9914 27.7333 46.0471 26.8938 46.0471 26C46.0471 25.1333 45.9914 24.2667 45.8522 23.4542L51.5044 19.175C52.0056 18.7958 52.1448 18.0646 51.8385 17.5229L46.4926 8.53125C46.1585 7.93542 45.4624 7.74583 44.8499 7.93542L38.1953 10.5354C36.8032 9.50625 35.3275 8.63958 33.6847 7.98958L32.6824 1.11042C32.571 0.460416 32.0141 0 31.3459 0H20.6541C19.9859 0 19.4568 0.460416 19.3455 1.11042L18.3431 7.98958C16.7004 8.63958 15.1968 9.53333 13.8325 10.5354L7.17798 7.93542C6.56543 7.71875 5.86935 7.93542 5.53523 8.53125L0.217178 17.5229C-0.116941 18.0917 -0.00556799 18.7958 0.551296 19.175L6.20347 23.4542C6.06425 24.2667 5.95288 25.1604 5.95288 26C5.95288 26.8396 6.00857 27.7333 6.14778 28.5458L0.49561 32.825C-0.00556795 33.2042 -0.144784 33.9354 0.161492 34.4771L5.50739 43.4688C5.84151 44.0646 6.53759 44.2542 7.15014 44.0646L13.8047 41.4646C15.1968 42.4937 16.6725 43.3604 18.3153 44.0104L19.3176 50.8896C19.4568 51.5396 19.9859 52 20.6541 52H31.3459C32.0141 52 32.571 51.5396 32.6545 50.8896L33.6569 44.0104C35.2996 43.3604 36.8032 42.4937 38.1675 41.4646L44.822 44.0646C45.4346 44.2812 46.1307 44.0646 46.4648 43.4688L51.8107 34.4771C52.1448 33.8812 52.0056 33.2042 51.4765 32.825L45.8801 28.5458ZM26 35.75C20.487 35.75 15.9764 31.3625 15.9764 26C15.9764 20.6375 20.487 16.25 26 16.25C31.513 16.25 36.0236 20.6375 36.0236 26C36.0236 31.3625 31.513 35.75 26 35.75Z" fill="#B7B7B7"/>
</svg>
